<?xml version="1.0" encoding="UTF-8" standalone="no"?>
<!DOCTYPE svg PUBLIC "-//W3C//DTD SVG 1.1//EN"
 "http://www.w3.org/Graphics/SVG/1.1/DTD/svg11.dtd">
<!-- Generated by graphviz version 2.40.1 (20161225.0304)
 -->
<!-- Title: G Pages: 1 -->
<svg width="514pt" height="768pt"
 viewBox="0.00 0.00 514.18 768.00" xmlns="http://www.w3.org/2000/svg" xmlns:xlink="http://www.w3.org/1999/xlink">
<g id="graph0" class="graph" transform="scale(1 1) rotate(0) translate(4 764)">
<title>G</title>
<polygon fill="#ffffff" stroke="transparent" points="-4,4 -4,-764 510.1834,-764 510.1834,4 -4,4"/>
<g id="clust1" class="cluster">
<title>cluster_Global</title>
<path fill="none" stroke="#c0c0c0" d="M20,-8C20,-8 486.1834,-8 486.1834,-8 492.1834,-8 498.1834,-14 498.1834,-20 498.1834,-20 498.1834,-740 498.1834,-740 498.1834,-746 492.1834,-752 486.1834,-752 486.1834,-752 20,-752 20,-752 14,-752 8,-746 8,-740 8,-740 8,-20 8,-20 8,-14 14,-8 20,-8"/>
<text text-anchor="middle" x="253.0917" y="-739.2" font-family="Times,serif" font-size="11.00" fill="#c0c0c0">Global</text>
</g>
<g id="clust2" class="cluster">
<title>cluster_\DatabaseBackup</title>
<path fill="none" stroke="#c0c0c0" d="M194.4879,-16C194.4879,-16 478.1834,-16 478.1834,-16 484.1834,-16 490.1834,-22 490.1834,-28 490.1834,-28 490.1834,-480 490.1834,-480 490.1834,-486 484.1834,-492 478.1834,-492 478.1834,-492 194.4879,-492 194.4879,-492 188.4879,-492 182.4879,-486 182.4879,-480 182.4879,-480 182.4879,-28 182.4879,-28 182.4879,-22 188.4879,-16 194.4879,-16"/>
<text text-anchor="middle" x="336.3356" y="-479.2" font-family="Times,serif" font-size="11.00" fill="#c0c0c0">DatabaseBackup</text>
</g>
<g id="clust3" class="cluster">
<title>cluster_\DatabaseBackup\Driver</title>
<path fill="none" stroke="#c0c0c0" d="M387.1834,-284C387.1834,-284 450.1834,-284 450.1834,-284 456.1834,-284 462.1834,-290 462.1834,-296 462.1834,-296 462.1834,-452 462.1834,-452 462.1834,-458 456.1834,-464 450.1834,-464 450.1834,-464 387.1834,-464 387.1834,-464 381.1834,-464 375.1834,-458 375.1834,-452 375.1834,-452 375.1834,-296 375.1834,-296 375.1834,-290 381.1834,-284 387.1834,-284"/>
<text text-anchor="middle" x="418.6834" y="-451.2" font-family="Times,serif" font-size="11.00" fill="#c0c0c0">Driver</text>
</g>
<g id="clust4" class="cluster">
<title>cluster_\DatabaseBackup\Utility</title>
<path fill="none" stroke="#c0c0c0" d="M370.6834,-150C370.6834,-150 466.6834,-150 466.6834,-150 472.6834,-150 478.6834,-156 478.6834,-162 478.6834,-162 478.6834,-264 478.6834,-264 478.6834,-270 472.6834,-276 466.6834,-276 466.6834,-276 370.6834,-276 370.6834,-276 364.6834,-276 358.6834,-270 358.6834,-264 358.6834,-264 358.6834,-162 358.6834,-162 358.6834,-156 364.6834,-150 370.6834,-150"/>
<text text-anchor="middle" x="418.6834" y="-263.2" font-family="Times,serif" font-size="11.00" fill="#c0c0c0">Utility</text>
</g>
<g id="clust5" class="cluster">
<title>cluster_\DatabaseBackup\TestSuite</title>
<path fill="none" stroke="#c0c0c0" d="M202.4879,-24C202.4879,-24 470.1834,-24 470.1834,-24 476.1834,-24 482.1834,-30 482.1834,-36 482.1834,-36 482.1834,-84 482.1834,-84 482.1834,-90 476.1834,-96 470.1834,-96 470.1834,-96 202.4879,-96 202.4879,-96 196.4879,-96 190.4879,-90 190.4879,-84 190.4879,-84 190.4879,-36 190.4879,-36 190.4879,-30 196.4879,-24 202.4879,-24"/>
<text text-anchor="middle" x="336.3356" y="-83.2" font-family="Times,serif" font-size="11.00" fill="#c0c0c0">TestSuite</text>
</g>
<g id="clust6" class="cluster">
<title>cluster_Global\DatabaseBackup</title>
<path fill="none" stroke="#c0c0c0" d="M202.6909,-500C202.6909,-500 278.2849,-500 278.2849,-500 284.2849,-500 290.2849,-506 290.2849,-512 290.2849,-512 290.2849,-596 290.2849,-596 290.2849,-602 284.2849,-608 278.2849,-608 278.2849,-608 202.6909,-608 202.6909,-608 196.6909,-608 190.6909,-602 190.6909,-596 190.6909,-596 190.6909,-512 190.6909,-512 190.6909,-506 196.6909,-500 202.6909,-500"/>
<text text-anchor="middle" x="240.4879" y="-595.2" font-family="Times,serif" font-size="11.00" fill="#c0c0c0">DatabaseBackup</text>
</g>
<g id="clust7" class="cluster">
<title>cluster_Global\DatabaseBackup\Driver</title>
<path fill="none" stroke="#c0c0c0" d="M210.6909,-508C210.6909,-508 270.2849,-508 270.2849,-508 276.2849,-508 282.2849,-514 282.2849,-520 282.2849,-520 282.2849,-568 282.2849,-568 282.2849,-574 276.2849,-580 270.2849,-580 270.2849,-580 210.6909,-580 210.6909,-580 204.6909,-580 198.6909,-574 198.6909,-568 198.6909,-568 198.6909,-520 198.6909,-520 198.6909,-514 204.6909,-508 210.6909,-508"/>
<text text-anchor="middle" x="240.4879" y="-567.2" font-family="Times,serif" font-size="11.00" fill="#c0c0c0">Driver</text>
</g>
<g id="clust8" class="cluster">
<title>cluster_Global\MeTools</title>
<path fill="none" stroke="#c0c0c0" d="M28,-16C28,-16 121.7924,-16 121.7924,-16 127.7924,-16 133.7924,-22 133.7924,-28 133.7924,-28 133.7924,-112 133.7924,-112 133.7924,-118 127.7924,-124 121.7924,-124 121.7924,-124 28,-124 28,-124 22,-124 16,-118 16,-112 16,-112 16,-28 16,-28 16,-22 22,-16 28,-16"/>
<text text-anchor="middle" x="74.8962" y="-111.2" font-family="Times,serif" font-size="11.00" fill="#c0c0c0">MeTools</text>
</g>
<g id="clust9" class="cluster">
<title>cluster_Global\MeTools\TestSuite</title>
<path fill="none" stroke="#c0c0c0" d="M36,-24C36,-24 113.7924,-24 113.7924,-24 119.7924,-24 125.7924,-30 125.7924,-36 125.7924,-36 125.7924,-84 125.7924,-84 125.7924,-90 119.7924,-96 113.7924,-96 113.7924,-96 36,-96 36,-96 30,-96 24,-90 24,-84 24,-84 24,-36 24,-36 24,-30 30,-24 36,-24"/>
<text text-anchor="middle" x="74.8962" y="-83.2" font-family="Times,serif" font-size="11.00" fill="#c0c0c0">TestSuite</text>
</g>
<g id="clust10" class="cluster">
<title>cluster_Global\Cake</title>
<path fill="none" stroke="#c0c0c0" d="M185.7924,-616C185.7924,-616 295.1834,-616 295.1834,-616 301.1834,-616 307.1834,-622 307.1834,-628 307.1834,-628 307.1834,-712 307.1834,-712 307.1834,-718 301.1834,-724 295.1834,-724 295.1834,-724 185.7924,-724 185.7924,-724 179.7924,-724 173.7924,-718 173.7924,-712 173.7924,-712 173.7924,-628 173.7924,-628 173.7924,-622 179.7924,-616 185.7924,-616"/>
<text text-anchor="middle" x="240.4879" y="-711.2" font-family="Times,serif" font-size="11.00" fill="#c0c0c0">Cake</text>
</g>
<g id="clust11" class="cluster">
<title>cluster_Global\Cake\Core</title>
<path fill="none" stroke="#c0c0c0" d="M193.7924,-624C193.7924,-624 287.1834,-624 287.1834,-624 293.1834,-624 299.1834,-630 299.1834,-636 299.1834,-636 299.1834,-684 299.1834,-684 299.1834,-690 293.1834,-696 287.1834,-696 287.1834,-696 193.7924,-696 193.7924,-696 187.7924,-696 181.7924,-690 181.7924,-684 181.7924,-684 181.7924,-636 181.7924,-636 181.7924,-630 187.7924,-624 193.7924,-624"/>
<text text-anchor="middle" x="240.4879" y="-683.2" font-family="Times,serif" font-size="11.00" fill="#c0c0c0">Core</text>
</g>
<!-- \\DatabaseBackup\\Driver\\Mysql -->
<g id="node1" class="node">
<title>\\DatabaseBackup\\Driver\\Mysql</title>
<polygon fill="none" stroke="#000000" points="445.6834,-328 391.6834,-328 391.6834,-292 445.6834,-292 445.6834,-328"/>
<text text-anchor="middle" x="418.6834" y="-307.2" font-family="Courier,monospace" font-size="11.00" fill="#000000">Mysql</text>
</g>
<!-- Driver -->
<g id="node9" class="node">
<title>Driver</title>
<ellipse fill="none" stroke="#000000" cx="240.4879" cy="-534" rx="33.5952" ry="18"/>
<text text-anchor="middle" x="240.4879" y="-530.3" font-family="Times,serif" font-size="14.00" fill="#c0c0c0">Driver</text>
</g>
<!-- \\DatabaseBackup\\Driver\\Mysql&#45;&gt;Driver -->
<g id="edge1" class="edge">
<title>\\DatabaseBackup\\Driver\\Mysql&#45;&gt;Driver</title>
<path fill="none" stroke="#000000" d="M391.5608,-318.1836C380.4733,-322.4935 368.0748,-328.6524 358.6834,-337 304.2917,-385.3464 267.3924,-464.8478 250.6805,-506.5362"/>
<polygon fill="none" stroke="#000000" points="247.3469,-505.4505 246.9599,-516.0383 253.865,-508.0027 247.3469,-505.4505"/>
</g>
<!-- \\DatabaseBackup\\Driver\\Postgres -->
<g id="node2" class="node">
<title>\\DatabaseBackup\\Driver\\Postgres</title>
<polygon fill="none" stroke="#000000" points="454.1834,-436 383.1834,-436 383.1834,-400 454.1834,-400 454.1834,-436"/>
<text text-anchor="middle" x="418.6834" y="-415.2" font-family="Courier,monospace" font-size="11.00" fill="#000000">Postgres</text>
</g>
<!-- \\DatabaseBackup\\Driver\\Postgres&#45;&gt;Driver -->
<g id="edge2" class="edge">
<title>\\DatabaseBackup\\Driver\\Postgres&#45;&gt;Driver</title>
<path fill="none" stroke="#000000" d="M390.8403,-436.125C358.1328,-457.4167 304.0796,-492.6037 270.4724,-514.481"/>
<polygon fill="none" stroke="#000000" points="268.4537,-511.6188 261.9824,-520.0077 272.2726,-517.4853 268.4537,-511.6188"/>
</g>
<!-- \\DatabaseBackup\\Driver\\Sqlite -->
<g id="node3" class="node">
<title>\\DatabaseBackup\\Driver\\Sqlite</title>
<polygon fill="none" stroke="#000000" points="447.1834,-382 390.1834,-382 390.1834,-346 447.1834,-346 447.1834,-382"/>
<text text-anchor="middle" x="418.6834" y="-361.2" font-family="Courier,monospace" font-size="11.00" fill="#000000">Sqlite</text>
</g>
<!-- \\DatabaseBackup\\Driver\\Sqlite&#45;&gt;Driver -->
<g id="edge3" class="edge">
<title>\\DatabaseBackup\\Driver\\Sqlite&#45;&gt;Driver</title>
<path fill="none" stroke="#000000" d="M390.0316,-373.7601C379.5794,-378.1018 368.0392,-383.866 358.6834,-391 314.858,-424.4178 276.8138,-477.0486 256.4017,-508.2792"/>
<polygon fill="none" stroke="#000000" points="253.347,-506.5586 250.8838,-516.8631 259.2354,-510.3438 253.347,-506.5586"/>
</g>
<!-- \\DatabaseBackup\\Utility\\BackupImport -->
<g id="node4" class="node">
<title>\\DatabaseBackup\\Utility\\BackupImport</title>
<polygon fill="none" stroke="#000000" points="467.6834,-248 369.6834,-248 369.6834,-212 467.6834,-212 467.6834,-248"/>
<text text-anchor="middle" x="418.6834" y="-227.2" font-family="Courier,monospace" font-size="11.00" fill="#000000">BackupImport</text>
</g>
<!-- \\DatabaseBackup\\Utility\\BackupManager -->
<g id="node5" class="node">
<title>\\DatabaseBackup\\Utility\\BackupManager</title>
<polygon fill="none" stroke="#000000" points="470.6834,-194 366.6834,-194 366.6834,-158 470.6834,-158 470.6834,-194"/>
<text text-anchor="middle" x="418.6834" y="-173.2" font-family="Courier,monospace" font-size="11.00" fill="#000000">BackupManager</text>
</g>
<!-- \\DatabaseBackup\\TestSuite\\TestCase -->
<g id="node6" class="node">
<title>\\DatabaseBackup\\TestSuite\\TestCase</title>
<polygon fill="none" stroke="#000000" points="282.4879,-68 198.4879,-68 198.4879,-32 282.4879,-32 282.4879,-68"/>
<text text-anchor="start" x="206.4879" y="-53.2" font-family="Courier,monospace" font-size="11.00" fill="#000000">«abstract»</text>
<text text-anchor="start" x="212.9879" y="-41.2" font-family="Courier,monospace" font-size="11.00" fill="#000000">TestCase</text>
</g>
<!-- TestCase -->
<g id="node10" class="node">
<title>TestCase</title>
<ellipse fill="none" stroke="#000000" cx="74.8962" cy="-50" rx="42.7926" ry="18"/>
<text text-anchor="middle" x="74.8962" y="-46.3" font-family="Times,serif" font-size="14.00" fill="#c0c0c0">TestCase</text>
</g>
<!-- \\DatabaseBackup\\TestSuite\\TestCase&#45;&gt;TestCase -->
<g id="edge4" class="edge">
<title>\\DatabaseBackup\\TestSuite\\TestCase&#45;&gt;TestCase</title>
<path fill="none" stroke="#000000" d="M198.2737,-50C176.9182,-50 150.7773,-50 128.0633,-50"/>
<polygon fill="none" stroke="#000000" points="127.8979,-46.5001 117.8979,-50 127.8978,-53.5001 127.8979,-46.5001"/>
</g>
<!-- \\DatabaseBackup\\TestSuite\\DriverTestCase -->
<g id="node7" class="node">
<title>\\DatabaseBackup\\TestSuite\\DriverTestCase</title>
<polygon fill="none" stroke="#000000" points="474.1834,-68 363.1834,-68 363.1834,-32 474.1834,-32 474.1834,-68"/>
<text text-anchor="start" x="384.6834" y="-53.2" font-family="Courier,monospace" font-size="11.00" fill="#000000">«abstract»</text>
<text text-anchor="start" x="371.1834" y="-41.2" font-family="Courier,monospace" font-size="11.00" fill="#000000">DriverTestCase</text>
</g>
<!-- \\DatabaseBackup\\TestSuite\\DriverTestCase&#45;&gt;\\DatabaseBackup\\TestSuite\\TestCase -->
<g id="edge6" class="edge">
<title>\\DatabaseBackup\\TestSuite\\DriverTestCase&#45;&gt;\\DatabaseBackup\\TestSuite\\TestCase</title>
<path fill="none" stroke="#000000" d="M362.7901,-50C340.4093,-50 314.7665,-50 292.7608,-50"/>
<polygon fill="none" stroke="#000000" points="292.6067,-46.5001 282.6066,-50 292.6066,-53.5001 292.6067,-46.5001"/>
</g>
<!-- \\DatabaseBackup\\Plugin -->
<g id="node8" class="node">
<title>\\DatabaseBackup\\Plugin</title>
<polygon fill="none" stroke="#000000" points="447.1834,-140 390.1834,-140 390.1834,-104 447.1834,-104 447.1834,-140"/>
<text text-anchor="middle" x="418.6834" y="-119.2" font-family="Courier,monospace" font-size="11.00" fill="#000000">Plugin</text>
</g>
<!-- BasePlugin -->
<g id="node11" class="node">
<title>BasePlugin</title>
<ellipse fill="none" stroke="#000000" cx="240.4879" cy="-650" rx="50.8918" ry="18"/>
<text text-anchor="middle" x="240.4879" y="-646.3" font-family="Times,serif" font-size="14.00" fill="#c0c0c0">BasePlugin</text>
</g>
<!-- \\DatabaseBackup\\Plugin&#45;&gt;BasePlugin -->
<g id="edge5" class="edge">
<title>\\DatabaseBackup\\Plugin&#45;&gt;BasePlugin</title>
<path fill="none" stroke="#000000" d="M390.0304,-126.8617C378.5422,-130.2888 366.2562,-136.1139 358.6834,-146 239.4909,-301.6026 393.1173,-407.8342 307.1834,-584 299.0215,-600.732 284.8555,-615.678 271.6724,-627.0981"/>
<polygon fill="none" stroke="#000000" points="269.1239,-624.6642 263.6536,-633.7376 273.5882,-630.0559 269.1239,-624.6642"/>
</g>
</g>
</svg>
