<?xml version="1.0" encoding="UTF-8" standalone="no"?>
<!DOCTYPE svg PUBLIC "-//W3C//DTD SVG 1.1//EN"
 "http://www.w3.org/Graphics/SVG/1.1/DTD/svg11.dtd">
<!-- Generated by graphviz version 2.40.1 (20161225.0304)
 -->
<!-- Title: G Pages: 1 -->
<svg width="624pt" height="1030pt"
 viewBox="0.00 0.00 624.37 1030.00" xmlns="http://www.w3.org/2000/svg" xmlns:xlink="http://www.w3.org/1999/xlink">
<g id="graph0" class="graph" transform="scale(1 1) rotate(0) translate(4 1026)">
<title>G</title>
<polygon fill="#ffffff" stroke="transparent" points="-4,4 -4,-1026 620.3749,-1026 620.3749,4 -4,4"/>
<g id="clust1" class="cluster">
<title>cluster_Global</title>
<path fill="none" stroke="#c0c0c0" d="M20,-44C20,-44 596.3749,-44 596.3749,-44 602.3749,-44 608.3749,-50 608.3749,-56 608.3749,-56 608.3749,-1002 608.3749,-1002 608.3749,-1008 602.3749,-1014 596.3749,-1014 596.3749,-1014 20,-1014 20,-1014 14,-1014 8,-1008 8,-1002 8,-1002 8,-56 8,-56 8,-50 14,-44 20,-44"/>
<text text-anchor="middle" x="308.1874" y="-1001.2" font-family="Times,serif" font-size="11.00" fill="#c0c0c0">Global</text>
</g>
<g id="clust2" class="cluster">
<title>cluster_\DatabaseBackup</title>
<path fill="none" stroke="#c0c0c0" d="M290.6794,-52C290.6794,-52 588.3749,-52 588.3749,-52 594.3749,-52 600.3749,-58 600.3749,-64 600.3749,-64 600.3749,-974 600.3749,-974 600.3749,-980 594.3749,-986 588.3749,-986 588.3749,-986 290.6794,-986 290.6794,-986 284.6794,-986 278.6794,-980 278.6794,-974 278.6794,-974 278.6794,-64 278.6794,-64 278.6794,-58 284.6794,-52 290.6794,-52"/>
<text text-anchor="middle" x="439.5271" y="-973.2" font-family="Times,serif" font-size="11.00" fill="#c0c0c0">DatabaseBackup</text>
</g>
<g id="clust3" class="cluster">
<title>cluster_\DatabaseBackup\Utility</title>
<path fill="none" stroke="#c0c0c0" d="M473.8749,-778C473.8749,-778 569.8749,-778 569.8749,-778 575.8749,-778 581.8749,-784 581.8749,-790 581.8749,-790 581.8749,-946 581.8749,-946 581.8749,-952 575.8749,-958 569.8749,-958 569.8749,-958 473.8749,-958 473.8749,-958 467.8749,-958 461.8749,-952 461.8749,-946 461.8749,-946 461.8749,-790 461.8749,-790 461.8749,-784 467.8749,-778 473.8749,-778"/>
<text text-anchor="middle" x="521.8749" y="-945.2" font-family="Times,serif" font-size="11.00" fill="#c0c0c0">Utility</text>
</g>
<g id="clust4" class="cluster">
<title>cluster_\DatabaseBackup\Command</title>
<path fill="none" stroke="#c0c0c0" d="M463.3749,-428C463.3749,-428 580.3749,-428 580.3749,-428 586.3749,-428 592.3749,-434 592.3749,-440 592.3749,-440 592.3749,-758 592.3749,-758 592.3749,-764 586.3749,-770 580.3749,-770 580.3749,-770 463.3749,-770 463.3749,-770 457.3749,-770 451.3749,-764 451.3749,-758 451.3749,-758 451.3749,-440 451.3749,-440 451.3749,-434 457.3749,-428 463.3749,-428"/>
<text text-anchor="middle" x="521.8749" y="-757.2" font-family="Times,serif" font-size="11.00" fill="#c0c0c0">Command</text>
</g>
<g id="clust5" class="cluster">
<title>cluster_\DatabaseBackup\Driver</title>
<path fill="none" stroke="#c0c0c0" d="M298.6794,-240C298.6794,-240 553.3749,-240 553.3749,-240 559.3749,-240 565.3749,-246 565.3749,-252 565.3749,-252 565.3749,-408 565.3749,-408 565.3749,-414 559.3749,-420 553.3749,-420 553.3749,-420 298.6794,-420 298.6794,-420 292.6794,-420 286.6794,-414 286.6794,-408 286.6794,-408 286.6794,-252 286.6794,-252 286.6794,-246 292.6794,-240 298.6794,-240"/>
<text text-anchor="middle" x="426.0271" y="-407.2" font-family="Times,serif" font-size="11.00" fill="#c0c0c0">Driver</text>
</g>
<g id="clust6" class="cluster">
<title>cluster_\DatabaseBackup\TestSuite</title>
<path fill="none" stroke="#c0c0c0" d="M298.6794,-160C298.6794,-160 573.3749,-160 573.3749,-160 579.3749,-160 585.3749,-166 585.3749,-172 585.3749,-172 585.3749,-220 585.3749,-220 585.3749,-226 579.3749,-232 573.3749,-232 573.3749,-232 298.6794,-232 298.6794,-232 292.6794,-232 286.6794,-226 286.6794,-220 286.6794,-220 286.6794,-172 286.6794,-172 286.6794,-166 292.6794,-160 298.6794,-160"/>
<text text-anchor="middle" x="436.0271" y="-219.2" font-family="Times,serif" font-size="11.00" fill="#c0c0c0">TestSuite</text>
</g>
<g id="clust7" class="cluster">
<title>cluster_\DatabaseBackup\Console</title>
<path fill="none" stroke="#c0c0c0" d="M308.6794,-563C308.6794,-563 364.6794,-563 364.6794,-563 370.6794,-563 376.6794,-569 376.6794,-575 376.6794,-575 376.6794,-623 376.6794,-623 376.6794,-629 370.6794,-635 364.6794,-635 364.6794,-635 308.6794,-635 308.6794,-635 302.6794,-635 296.6794,-629 296.6794,-623 296.6794,-623 296.6794,-575 296.6794,-575 296.6794,-569 302.6794,-563 308.6794,-563"/>
<text text-anchor="middle" x="336.6794" y="-622.2" font-family="Times,serif" font-size="11.00" fill="#c0c0c0">Console</text>
</g>
<g id="clust8" class="cluster">
<title>cluster_Global\MeTools</title>
<path fill="none" stroke="#c0c0c0" d="M70.8962,-555C70.8962,-555 175.0877,-555 175.0877,-555 181.0877,-555 187.0877,-561 187.0877,-567 187.0877,-567 187.0877,-651 187.0877,-651 187.0877,-657 181.0877,-663 175.0877,-663 175.0877,-663 70.8962,-663 70.8962,-663 64.8962,-663 58.8962,-657 58.8962,-651 58.8962,-651 58.8962,-567 58.8962,-567 58.8962,-561 64.8962,-555 70.8962,-555"/>
<text text-anchor="middle" x="122.9919" y="-650.2" font-family="Times,serif" font-size="11.00" fill="#c0c0c0">MeTools</text>
</g>
<g id="clust9" class="cluster">
<title>cluster_Global\MeTools\Console</title>
<path fill="none" stroke="#c0c0c0" d="M78.8962,-563C78.8962,-563 167.0877,-563 167.0877,-563 173.0877,-563 179.0877,-569 179.0877,-575 179.0877,-575 179.0877,-623 179.0877,-623 179.0877,-629 173.0877,-635 167.0877,-635 167.0877,-635 78.8962,-635 78.8962,-635 72.8962,-635 66.8962,-629 66.8962,-623 66.8962,-623 66.8962,-575 66.8962,-575 66.8962,-569 72.8962,-563 78.8962,-563"/>
<text text-anchor="middle" x="122.9919" y="-622.2" font-family="Times,serif" font-size="11.00" fill="#c0c0c0">Console</text>
</g>
<g id="clust10" class="cluster">
<title>cluster_Global\Cake</title>
<path fill="none" stroke="#c0c0c0" d="M28,-286C28,-286 217.9839,-286 217.9839,-286 223.9839,-286 229.9839,-292 229.9839,-298 229.9839,-298 229.9839,-382 229.9839,-382 229.9839,-388 223.9839,-394 217.9839,-394 217.9839,-394 28,-394 28,-394 22,-394 16,-388 16,-382 16,-382 16,-298 16,-298 16,-292 22,-286 28,-286"/>
<text text-anchor="middle" x="122.9919" y="-381.2" font-family="Times,serif" font-size="11.00" fill="#c0c0c0">Cake</text>
</g>
<g id="clust11" class="cluster">
<title>cluster_Global\Cake\Event</title>
<path fill="none" stroke="#c0c0c0" d="M36,-294C36,-294 209.9839,-294 209.9839,-294 215.9839,-294 221.9839,-300 221.9839,-306 221.9839,-306 221.9839,-354 221.9839,-354 221.9839,-360 215.9839,-366 209.9839,-366 209.9839,-366 36,-366 36,-366 30,-366 24,-360 24,-354 24,-354 24,-306 24,-306 24,-300 30,-294 36,-294"/>
<text text-anchor="middle" x="122.9919" y="-353.2" font-family="Times,serif" font-size="11.00" fill="#c0c0c0">Event</text>
</g>
<!-- \\DatabaseBackup\\Utility\\BackupExport -->
<g id="node1" class="node">
<title>\\DatabaseBackup\\Utility\\BackupExport</title>
<polygon fill="none" stroke="#000000" points="570.8749,-930 472.8749,-930 472.8749,-894 570.8749,-894 570.8749,-930"/>
<text text-anchor="middle" x="521.8749" y="-909.2" font-family="Courier,monospace" font-size="11.00" fill="#000000">BackupExport</text>
</g>
<!-- \\DatabaseBackup\\Utility\\BackupImport -->
<g id="node2" class="node">
<title>\\DatabaseBackup\\Utility\\BackupImport</title>
<polygon fill="none" stroke="#000000" points="570.8749,-876 472.8749,-876 472.8749,-840 570.8749,-840 570.8749,-876"/>
<text text-anchor="middle" x="521.8749" y="-855.2" font-family="Courier,monospace" font-size="11.00" fill="#000000">BackupImport</text>
</g>
<!-- \\DatabaseBackup\\Utility\\BackupManager -->
<g id="node3" class="node">
<title>\\DatabaseBackup\\Utility\\BackupManager</title>
<polygon fill="none" stroke="#000000" points="573.8749,-822 469.8749,-822 469.8749,-786 573.8749,-786 573.8749,-822"/>
<text text-anchor="middle" x="521.8749" y="-801.2" font-family="Courier,monospace" font-size="11.00" fill="#000000">BackupManager</text>
</g>
<!-- \\DatabaseBackup\\Command\\DeleteAllCommand -->
<g id="node4" class="node">
<title>\\DatabaseBackup\\Command\\DeleteAllCommand</title>
<polygon fill="none" stroke="#000000" points="584.3749,-742 459.3749,-742 459.3749,-706 584.3749,-706 584.3749,-742"/>
<text text-anchor="middle" x="521.8749" y="-721.2" font-family="Courier,monospace" font-size="11.00" fill="#000000">DeleteAllCommand</text>
</g>
<!-- \\DatabaseBackup\\Console\\Command -->
<g id="node16" class="node">
<title>\\DatabaseBackup\\Console\\Command</title>
<polygon fill="none" stroke="#000000" points="368.6794,-607 304.6794,-607 304.6794,-571 368.6794,-571 368.6794,-607"/>
<text text-anchor="middle" x="336.6794" y="-586.2" font-family="Courier,monospace" font-size="11.00" fill="#000000">Command</text>
</g>
<!-- \\DatabaseBackup\\Command\\DeleteAllCommand&#45;&gt;\\DatabaseBackup\\Console\\Command -->
<g id="edge1" class="edge">
<title>\\DatabaseBackup\\Command\\DeleteAllCommand&#45;&gt;\\DatabaseBackup\\Console\\Command</title>
<path fill="none" stroke="#000000" d="M468.0637,-705.9446C462.2701,-703.2575 456.5922,-700.275 451.3749,-697 415.1611,-674.2684 380.4056,-639.0258 358.8315,-615.0287"/>
<polygon fill="none" stroke="#000000" points="361.2871,-612.5224 352.0373,-607.356 356.0464,-617.1631 361.2871,-612.5224"/>
</g>
<!-- \\DatabaseBackup\\Command\\ExportCommand -->
<g id="node5" class="node">
<title>\\DatabaseBackup\\Command\\ExportCommand</title>
<polygon fill="none" stroke="#000000" points="573.8749,-688 469.8749,-688 469.8749,-652 573.8749,-652 573.8749,-688"/>
<text text-anchor="middle" x="521.8749" y="-667.2" font-family="Courier,monospace" font-size="11.00" fill="#000000">ExportCommand</text>
</g>
<!-- \\DatabaseBackup\\Command\\ExportCommand&#45;&gt;\\DatabaseBackup\\Console\\Command -->
<g id="edge2" class="edge">
<title>\\DatabaseBackup\\Command\\ExportCommand&#45;&gt;\\DatabaseBackup\\Console\\Command</title>
<path fill="none" stroke="#000000" d="M473.1415,-651.8786C465.8111,-648.9963 458.368,-645.9805 451.3749,-643 426.8596,-632.5516 399.8765,-619.9067 378.2442,-609.4805"/>
<polygon fill="none" stroke="#000000" points="379.5431,-606.2208 369.0175,-605.0119 376.4919,-612.5208 379.5431,-606.2208"/>
</g>
<!-- \\DatabaseBackup\\Command\\SendCommand -->
<g id="node6" class="node">
<title>\\DatabaseBackup\\Command\\SendCommand</title>
<polygon fill="none" stroke="#000000" points="567.3749,-634 476.3749,-634 476.3749,-598 567.3749,-598 567.3749,-634"/>
<text text-anchor="middle" x="521.8749" y="-613.2" font-family="Courier,monospace" font-size="11.00" fill="#000000">SendCommand</text>
</g>
<!-- \\DatabaseBackup\\Command\\SendCommand&#45;&gt;\\DatabaseBackup\\Console\\Command -->
<g id="edge7" class="edge">
<title>\\DatabaseBackup\\Command\\SendCommand&#45;&gt;\\DatabaseBackup\\Console\\Command</title>
<path fill="none" stroke="#000000" d="M476.0962,-609.3258C446.4276,-605.0004 408.0572,-599.4063 379.0829,-595.1821"/>
<polygon fill="none" stroke="#000000" points="379.2672,-591.672 368.8669,-593.6927 378.2573,-598.5988 379.2672,-591.672"/>
</g>
<!-- \\DatabaseBackup\\Command\\RotateCommand -->
<g id="node7" class="node">
<title>\\DatabaseBackup\\Command\\RotateCommand</title>
<polygon fill="none" stroke="#000000" points="573.8749,-580 469.8749,-580 469.8749,-544 573.8749,-544 573.8749,-580"/>
<text text-anchor="middle" x="521.8749" y="-559.2" font-family="Courier,monospace" font-size="11.00" fill="#000000">RotateCommand</text>
</g>
<!-- \\DatabaseBackup\\Command\\RotateCommand&#45;&gt;\\DatabaseBackup\\Console\\Command -->
<g id="edge8" class="edge">
<title>\\DatabaseBackup\\Command\\RotateCommand&#45;&gt;\\DatabaseBackup\\Console\\Command</title>
<path fill="none" stroke="#000000" d="M469.7947,-569.5929C441.0505,-573.7835 405.8178,-578.9202 378.8216,-582.856"/>
<polygon fill="none" stroke="#000000" points="378.2994,-579.395 368.909,-584.3012 379.3094,-586.3218 378.2994,-579.395"/>
</g>
<!-- \\DatabaseBackup\\Command\\IndexCommand -->
<g id="node8" class="node">
<title>\\DatabaseBackup\\Command\\IndexCommand</title>
<polygon fill="none" stroke="#000000" points="570.8749,-526 472.8749,-526 472.8749,-490 570.8749,-490 570.8749,-526"/>
<text text-anchor="middle" x="521.8749" y="-505.2" font-family="Courier,monospace" font-size="11.00" fill="#000000">IndexCommand</text>
</g>
<!-- \\DatabaseBackup\\Command\\IndexCommand&#45;&gt;\\DatabaseBackup\\Console\\Command -->
<g id="edge11" class="edge">
<title>\\DatabaseBackup\\Command\\IndexCommand&#45;&gt;\\DatabaseBackup\\Console\\Command</title>
<path fill="none" stroke="#000000" d="M473.1415,-526.1214C465.8111,-529.0037 458.368,-532.0195 451.3749,-535 426.8596,-545.4484 399.8765,-558.0933 378.2442,-568.5195"/>
<polygon fill="none" stroke="#000000" points="376.4919,-565.4792 369.0175,-572.9881 379.5431,-571.7792 376.4919,-565.4792"/>
</g>
<!-- \\DatabaseBackup\\Command\\ImportCommand -->
<g id="node9" class="node">
<title>\\DatabaseBackup\\Command\\ImportCommand</title>
<polygon fill="none" stroke="#000000" points="573.8749,-472 469.8749,-472 469.8749,-436 573.8749,-436 573.8749,-472"/>
<text text-anchor="middle" x="521.8749" y="-451.2" font-family="Courier,monospace" font-size="11.00" fill="#000000">ImportCommand</text>
</g>
<!-- \\DatabaseBackup\\Command\\ImportCommand&#45;&gt;\\DatabaseBackup\\Console\\Command -->
<g id="edge12" class="edge">
<title>\\DatabaseBackup\\Command\\ImportCommand&#45;&gt;\\DatabaseBackup\\Console\\Command</title>
<path fill="none" stroke="#000000" d="M469.5452,-471.3758C463.2399,-474.237 457.0362,-477.4463 451.3749,-481 415.1611,-503.7316 380.4056,-538.9742 358.8315,-562.9713"/>
<polygon fill="none" stroke="#000000" points="356.0464,-560.8369 352.0373,-570.644 361.2871,-565.4776 356.0464,-560.8369"/>
</g>
<!-- \\DatabaseBackup\\Driver\\Mysql -->
<g id="node10" class="node">
<title>\\DatabaseBackup\\Driver\\Mysql</title>
<polygon fill="none" stroke="#000000" points="548.8749,-392 494.8749,-392 494.8749,-356 548.8749,-356 548.8749,-392"/>
<text text-anchor="middle" x="521.8749" y="-371.2" font-family="Courier,monospace" font-size="11.00" fill="#000000">Mysql</text>
</g>
<!-- \\DatabaseBackup\\Driver\\Driver -->
<g id="node13" class="node">
<title>\\DatabaseBackup\\Driver\\Driver</title>
<polygon fill="none" stroke="#000000" points="378.6794,-338 294.6794,-338 294.6794,-302 378.6794,-302 378.6794,-338"/>
<text text-anchor="start" x="302.6794" y="-323.2" font-family="Courier,monospace" font-size="11.00" fill="#000000">«abstract»</text>
<text text-anchor="start" x="316.1794" y="-311.2" font-family="Courier,monospace" font-size="11.00" fill="#000000">Driver</text>
</g>
<!-- \\DatabaseBackup\\Driver\\Mysql&#45;&gt;\\DatabaseBackup\\Driver\\Driver -->
<g id="edge3" class="edge">
<title>\\DatabaseBackup\\Driver\\Mysql&#45;&gt;\\DatabaseBackup\\Driver\\Driver</title>
<path fill="none" stroke="#000000" d="M494.5486,-366.0321C466.8011,-357.9414 423.1437,-345.2116 388.7656,-335.1875"/>
<polygon fill="none" stroke="#000000" points="389.4604,-331.7444 378.8805,-332.3052 387.5009,-338.4646 389.4604,-331.7444"/>
</g>
<!-- \\DatabaseBackup\\Driver\\Postgres -->
<g id="node11" class="node">
<title>\\DatabaseBackup\\Driver\\Postgres</title>
<polygon fill="none" stroke="#000000" points="557.3749,-338 486.3749,-338 486.3749,-302 557.3749,-302 557.3749,-338"/>
<text text-anchor="middle" x="521.8749" y="-317.2" font-family="Courier,monospace" font-size="11.00" fill="#000000">Postgres</text>
</g>
<!-- \\DatabaseBackup\\Driver\\Postgres&#45;&gt;\\DatabaseBackup\\Driver\\Driver -->
<g id="edge4" class="edge">
<title>\\DatabaseBackup\\Driver\\Postgres&#45;&gt;\\DatabaseBackup\\Driver\\Driver</title>
<path fill="none" stroke="#000000" d="M486.1673,-320C458.5927,-320 420.0289,-320 388.9769,-320"/>
<polygon fill="none" stroke="#000000" points="388.761,-316.5001 378.761,-320 388.7609,-323.5001 388.761,-316.5001"/>
</g>
<!-- \\DatabaseBackup\\Driver\\Sqlite -->
<g id="node12" class="node">
<title>\\DatabaseBackup\\Driver\\Sqlite</title>
<polygon fill="none" stroke="#000000" points="550.3749,-284 493.3749,-284 493.3749,-248 550.3749,-248 550.3749,-284"/>
<text text-anchor="middle" x="521.8749" y="-263.2" font-family="Courier,monospace" font-size="11.00" fill="#000000">Sqlite</text>
</g>
<!-- \\DatabaseBackup\\Driver\\Sqlite&#45;&gt;\\DatabaseBackup\\Driver\\Driver -->
<g id="edge5" class="edge">
<title>\\DatabaseBackup\\Driver\\Sqlite&#45;&gt;\\DatabaseBackup\\Driver\\Driver</title>
<path fill="none" stroke="#000000" d="M493.3439,-274.3192C465.5475,-282.4241 422.6439,-294.9341 388.7581,-304.8147"/>
<polygon fill="none" stroke="#000000" points="387.6305,-301.4976 379.01,-307.6571 389.59,-308.2178 387.6305,-301.4976"/>
</g>
<!-- EventListenerInterface -->
<g id="node20" class="node">
<title>EventListenerInterface</title>
<ellipse fill="none" stroke="#000000" cx="122.9919" cy="-320" rx="90.9839" ry="18"/>
<text text-anchor="middle" x="122.9919" y="-316.3" font-family="Times,serif" font-size="14.00" fill="#c0c0c0">EventListenerInterface</text>
</g>
<!-- \\DatabaseBackup\\Driver\\Driver&#45;&gt;EventListenerInterface -->
<g id="edge10" class="edge">
<title>\\DatabaseBackup\\Driver\\Driver&#45;&gt;EventListenerInterface</title>
<path fill="none" stroke="#000000" stroke-dasharray="1,5" d="M294.4616,-320C274.2571,-320 249.1137,-320 224.363,-320"/>
<polygon fill="none" stroke="#000000" points="224.1691,-316.5001 214.1691,-320 224.169,-323.5001 224.1691,-316.5001"/>
</g>
<!-- \\DatabaseBackup\\TestSuite\\TestCase -->
<g id="node14" class="node">
<title>\\DatabaseBackup\\TestSuite\\TestCase</title>
<polygon fill="none" stroke="#000000" points="378.6794,-204 294.6794,-204 294.6794,-168 378.6794,-168 378.6794,-204"/>
<text text-anchor="start" x="302.6794" y="-189.2" font-family="Courier,monospace" font-size="11.00" fill="#000000">«abstract»</text>
<text text-anchor="start" x="309.1794" y="-177.2" font-family="Courier,monospace" font-size="11.00" fill="#000000">TestCase</text>
</g>
<!-- TestCase -->
<g id="node21" class="node">
<title>TestCase</title>
<ellipse fill="none" stroke="#000000" cx="122.9919" cy="-18" rx="42.7926" ry="18"/>
<text text-anchor="middle" x="122.9919" y="-14.3" font-family="Times,serif" font-size="14.00" fill="#000000">TestCase</text>
</g>
<!-- \\DatabaseBackup\\TestSuite\\TestCase&#45;&gt;TestCase -->
<g id="edge6" class="edge">
<title>\\DatabaseBackup\\TestSuite\\TestCase&#45;&gt;TestCase</title>
<path fill="none" stroke="#000000" d="M313.4043,-167.7012C273.956,-136.6872 194.0998,-73.9046 151.413,-40.3445"/>
<polygon fill="none" stroke="#000000" points="153.4188,-37.4693 143.3942,-34.0402 149.0924,-42.9722 153.4188,-37.4693"/>
</g>
<!-- \\DatabaseBackup\\TestSuite\\DriverTestCase -->
<g id="node15" class="node">
<title>\\DatabaseBackup\\TestSuite\\DriverTestCase</title>
<polygon fill="none" stroke="#000000" points="577.3749,-204 466.3749,-204 466.3749,-168 577.3749,-168 577.3749,-204"/>
<text text-anchor="start" x="487.8749" y="-189.2" font-family="Courier,monospace" font-size="11.00" fill="#000000">«abstract»</text>
<text text-anchor="start" x="474.3749" y="-177.2" font-family="Courier,monospace" font-size="11.00" fill="#000000">DriverTestCase</text>
</g>
<!-- \\DatabaseBackup\\TestSuite\\DriverTestCase&#45;&gt;\\DatabaseBackup\\TestSuite\\TestCase -->
<g id="edge13" class="edge">
<title>\\DatabaseBackup\\TestSuite\\DriverTestCase&#45;&gt;\\DatabaseBackup\\TestSuite\\TestCase</title>
<path fill="none" stroke="#000000" d="M466.3101,-186C441.7917,-186 413.1259,-186 388.9941,-186"/>
<polygon fill="none" stroke="#000000" points="388.9548,-182.5001 378.9547,-186 388.9547,-189.5001 388.9548,-182.5001"/>
</g>
<!-- Command -->
<g id="node19" class="node">
<title>Command</title>
<ellipse fill="none" stroke="#000000" cx="122.9919" cy="-589" rx="48.1917" ry="18"/>
<text text-anchor="middle" x="122.9919" y="-585.3" font-family="Times,serif" font-size="14.00" fill="#c0c0c0">Command</text>
</g>
<!-- \\DatabaseBackup\\Console\\Command&#45;&gt;Command -->
<g id="edge14" class="edge">
<title>\\DatabaseBackup\\Console\\Command&#45;&gt;Command</title>
<path fill="none" stroke="#000000" d="M304.2248,-589C271.6811,-589 220.8578,-589 181.3033,-589"/>
<polygon fill="none" stroke="#000000" points="181.2495,-585.5001 171.2494,-589 181.2494,-592.5001 181.2495,-585.5001"/>
</g>
<!-- \\DatabaseBackup\\Plugin -->
<g id="node17" class="node">
<title>\\DatabaseBackup\\Plugin</title>
<polygon fill="none" stroke="#000000" points="550.3749,-150 493.3749,-150 493.3749,-114 550.3749,-114 550.3749,-150"/>
<text text-anchor="middle" x="521.8749" y="-129.2" font-family="Courier,monospace" font-size="11.00" fill="#000000">Plugin</text>
</g>
<!-- BasePlugin -->
<g id="node22" class="node">
<title>BasePlugin</title>
<ellipse fill="none" stroke="#000000" cx="336.6794" cy="-18" rx="50.8918" ry="18"/>
<text text-anchor="middle" x="336.6794" y="-14.3" font-family="Times,serif" font-size="14.00" fill="#000000">BasePlugin</text>
</g>
<!-- \\DatabaseBackup\\Plugin&#45;&gt;BasePlugin -->
<g id="edge9" class="edge">
<title>\\DatabaseBackup\\Plugin&#45;&gt;BasePlugin</title>
<path fill="none" stroke="#000000" d="M493.2625,-123.115C480.1135,-118.5153 464.5488,-112.3231 451.3749,-105 418.8843,-86.9393 385.4315,-60.4978 363.1018,-41.5102"/>
<polygon fill="none" stroke="#000000" points="365.2631,-38.7525 355.4008,-34.8814 360.6965,-44.0578 365.2631,-38.7525"/>
</g>
<!-- \\DatabaseBackup\\BackupTrait -->
<g id="node18" class="node">
<title>\\DatabaseBackup\\BackupTrait</title>
<polygon fill="none" stroke="#000000" points="567.3749,-96 476.3749,-96 476.3749,-60 567.3749,-60 567.3749,-96"/>
<text text-anchor="middle" x="521.8749" y="-75.2" font-family="Courier,monospace" font-size="11.00" fill="#000000">BackupTrait</text>
</g>
</g>
</svg>
